<?xml version="1.0" encoding="UTF-8"?>
<svg id="Layer_1" data-name="Layer 1" xmlns="http://www.w3.org/2000/svg" viewBox="0 0 6936.71 1948.82">
  <defs>
    <style>
      .cls-1 {
        fill: #dc002b;
      }

      .cls-2 {
        fill: #fff;
      }
    </style>
  </defs>
  <g>
    <path class="cls-2" d="M700.07,1294.98c0,149.84-106.27,268.86-256.1,268.86s-258.23-121.14-258.23-270.98v-2.13c0-149.84,106.27-268.86,256.1-268.86s258.23,121.14,258.23,270.98v2.13ZM443.97,927.29c-107.33,0-197.66,42.51-261.42,109.46-63.76,66.95-99.89,158.34-99.89,256.1v2.13c0,96.7,36.13,188.09,98.83,255.04,62.7,66.95,153.02,108.39,260.35,108.39s197.66-42.51,261.42-109.46c63.76-66.95,99.89-158.34,99.89-256.1v-2.13c0-96.7-36.13-188.09-98.83-255.04-62.7-65.89-153.02-108.39-260.35-108.39"/>
    <path class="cls-2" d="M1340.86,1384.24c0,58.45-19.13,104.14-48.88,134.96-29.75,30.82-71.2,47.82-117.96,47.82-87.14,0-171.09-73.32-171.09-183.84v-2.13c0-109.46,83.95-182.78,171.09-182.78s165.78,70.14,166.84,183.84v2.13ZM1187.83,1107.95c-82.89,0-141.34,39.32-182.78,90.33v-79.7h-97.77v685.42h97.77v-231.66c40.38,46.76,98.83,86.08,182.78,86.08,63.76,0,127.52-25.5,174.28-73.32,46.76-46.76,78.64-115.83,78.64-201.91v-2.13c0-86.08-30.82-155.15-78.64-201.91-46.76-46.76-110.52-71.2-174.28-71.2"/>
    <path class="cls-2" d="M1754.24,1194.02c46.76,0,80.76,18.07,106.27,46.76,22.32,25.5,36.13,61.63,41.44,100.95h-298.61c6.38-41.44,23.38-76.51,47.82-103.08,27.63-28.69,62.7-44.63,103.08-44.63M1756.36,1107.95c-73.32,0-137.08,30.82-181.72,80.76-44.63,49.95-72.26,119.02-72.26,194.47,0,81.83,29.75,150.9,77.57,198.72,47.82,48.88,113.71,76.51,185.97,76.51,98.83,0,164.71-40.38,216.78-98.83l7.44-8.5-63.76-57.38-7.44,7.44c-40.38,41.44-85.01,68.01-150.9,68.01-79.7,0-148.77-52.07-164.71-145.59h397.44l1.06-10.63c1.06-11.69,1.06-20.19,1.06-27.63,0-76.51-22.32-146.65-64.82-196.59-41.44-49.95-104.14-80.76-181.72-80.76"/>
    <path class="cls-2" d="M2349.33,1107.95c-74.39,0-126.46,31.88-161.53,74.39v-63.76h-97.77v528.15h97.77v-300.74c0-44.63,14.88-81.83,40.38-107.33,24.44-25.5,59.51-40.38,99.89-40.38,42.51,0,73.32,13.81,94.58,37.19,21.25,23.38,34.01,58.45,34.01,104.14v307.11h97.77v-325.18c0-62.7-18.07-115.83-54.2-154.09-36.13-38.26-87.14-59.51-150.9-59.51"/>
    <path class="cls-2" d="M3104.89,1350.24h208.28v153.02c-44.63,35.07-112.64,62.7-185.97,62.7-80.76,0-144.52-28.69-189.16-77.57-44.63-48.88-70.14-116.89-70.14-195.53v-2.13c0-73.32,26.57-141.34,70.14-190.22,44.63-48.88,106.27-79.7,178.53-79.7,94.58,0,148.77,30.82,200.84,75.45l8.5,7.44,64.82-76.51-8.5-7.44c-70.14-58.45-144.52-93.52-262.48-93.52-106.27,0-194.47,42.51-257.17,110.52-62.7,66.95-97.77,158.34-97.77,255.04v2.13c0,99.89,34.01,191.28,96.7,257.17,62.7,65.89,153.02,106.27,263.54,106.27,119.02,0,216.78-48.88,282.67-107.33l4.25-3.19v-289.05h-304.99v92.45h-2.12Z"/>
    <path class="cls-2" d="M3858.33,1449.07c0,36.13-17,66.95-44.63,89.26-27.63,22.32-68.01,35.07-111.58,35.07-31.88,0-61.63-8.5-82.89-24.44-21.25-15.94-32.94-37.19-32.94-64.82v-2.13c0-26.57,11.69-47.82,34.01-64.82,22.32-15.94,57.38-26.57,102.02-25.5,56.32,0,100.95,9.56,136.02,19.13v38.26ZM3726.56,1110.07c-76.51,0-131.77,18.07-188.09,43.57l-9.56,4.25,30.82,82.89,11.69-5.31c45.69-21.25,91.39-35.07,148.77-35.07,45.69,0,79.7,11.69,103.08,31.88,22.32,20.19,35.07,51.01,35.07,93.51v1.06c-41.44-10.63-83.95-18.07-143.46-18.07-65.89,0-122.21,14.88-162.59,44.63-40.38,29.75-64.82,75.45-64.82,132.83v2.13c0,55.26,25.5,98.83,63.76,126.46,38.26,28.69,87.14,42.51,137.08,42.51,77.57,0,132.83-30.82,170.03-68.01v57.38h96.7v-320.93c0-66.95-18.07-119.02-56.32-156.21-39.32-39.32-98.83-59.51-172.15-59.51"/>
    <path class="cls-2" d="M4192.01,965.55h-97.77v153.02h-70.14v89.26h70.14v293.3c0,53.13,15.94,93.51,44.63,117.96,28.69,25.5,66.95,36.13,109.46,36.13,38.26,0,68.01-8.5,95.64-22.32l6.38-3.19v-89.26l-15.94,7.44c-25.5,11.69-44.63,15.94-68.01,17-23.38,0-42.51-5.31-54.2-15.94-11.69-10.63-19.13-27.63-20.19-56.32v-283.73h160.46v-89.26h-160.46v-154.09h0Z"/>
    <path class="cls-2" d="M4659.58,1194.02c46.76,0,80.76,18.07,106.27,46.76,22.32,25.5,36.13,61.63,41.44,100.95h-298.61c6.38-41.44,23.38-76.51,47.82-103.08,27.63-28.69,62.7-44.63,103.08-44.63M4661.71,1107.95c-73.32,0-137.08,30.82-181.72,80.76-44.63,49.95-72.26,119.02-72.26,194.47,0,81.83,29.75,150.9,77.57,198.72,47.82,48.88,113.71,76.51,185.97,76.51,98.83,0,164.71-40.38,216.79-98.83l7.44-8.5-63.76-57.38-7.44,7.44c-40.38,41.44-85.01,68.01-150.9,68.01-79.7,0-148.77-52.07-164.71-145.59h398.5l1.06-10.63c1.06-11.69,1.06-20.19,1.06-27.63,0-76.51-22.32-146.65-64.82-196.59-42.51-49.95-105.2-80.76-182.78-80.76"/>
  </g>
  <polygon class="cls-2" points="5511.84 1500.07 5383.26 1116.45 5304.62 1116.45 5176.04 1499.01 5051.71 1118.57 4947.57 1118.57 4952.88 1133.45 5132.47 1650.97 5214.3 1650.97 5343.94 1275.85 5471.46 1650.97 5553.29 1650.97 5739.26 1118.57 5636.18 1118.57 5511.84 1500.07"/>
  <g>
    <path class="cls-2" d="M6147.32,1449.07c0,36.13-17,66.95-44.63,89.26-27.63,22.32-68.01,35.07-111.58,35.07-31.88,0-61.63-8.5-82.89-24.44-21.25-15.94-32.94-37.19-32.94-64.82v-2.13c0-26.57,11.69-47.82,34.01-64.82,22.32-15.94,57.38-26.57,102.02-25.5,56.32,0,100.95,9.56,136.02,19.13v38.26ZM6015.55,1110.07c-76.51,0-131.77,18.07-188.09,43.57l-9.56,4.25,30.82,82.89,11.69-5.31c45.69-21.25,91.39-35.07,148.77-35.07,45.69,0,79.7,11.69,103.08,31.88,22.32,20.19,35.07,51.01,35.07,93.51v1.06c-41.44-10.63-83.95-18.07-143.46-18.07-65.89,0-122.21,14.88-162.59,44.63-40.38,29.75-64.82,75.45-64.82,132.83v2.13c0,55.26,25.5,98.83,63.76,126.46,38.26,28.69,87.14,42.51,137.08,42.51,77.57,0,132.83-30.82,170.03-68.01v57.38h96.7v-320.93c0-66.95-18.07-119.02-56.32-156.21-39.32-39.32-98.83-59.51-172.15-59.51"/>
    <path class="cls-2" d="M6583.02,1521.33l-175.34-402.75h-108.39l234.85,515.4c-13.81,31.88-27.63,53.13-41.44,65.89-14.88,12.75-28.69,18.07-49.95,18.07-30.82,0-51.01-5.31-74.39-17l-10.63-5.31-34.01,80.76,9.56,4.25c35.07,17,69.07,26.57,112.64,26.57,40.38,0,74.39-10.63,104.14-35.07,29.75-24.44,53.13-61.63,74.39-114.77l218.91-537.71h-105.2l-155.15,401.69Z"/>
  </g>
  <g>
    <path class="cls-1" d="M776.58,438.46v51.01c0,61.63-14.88,100.95-45.69,131.77-41.44,41.44-119.02,69.07-268.86,69.07-174.28,0-246.54-36.13-286.92-76.51-36.13-36.13-56.32-85.01-56.32-148.77s18.07-111.58,56.32-149.84c40.38-40.38,122.21-75.45,287.98-75.45,131.77,0,229.54,22.32,282.67,45.69v90.33c-62.7-31.88-162.59-56.32-282.67-56.32s-180.65,21.25-208.28,47.82c-23.38,22.32-34.01,54.2-34.01,96.7,0,45.69,12.75,75.45,34.01,96.7,28.69,27.63,81.83,51.01,208.28,51.01,100.95,0,166.84-17,191.28-41.44,17-15.94,21.25-34.01,21.25-53.13h-264.61v-77.58h365.56v-1.06Z"/>
    <path class="cls-1" d="M877.53,290.75c31.88-31.88,94.58-52.07,246.54-52.07,119.02,0,214.66,17,273.11,40.38v85.01c-65.89-27.63-177.47-48.88-272.04-48.88-116.89,0-153.02,10.63-166.84,24.44-6.38,6.38-10.63,15.94-10.63,27.63,0,10.63,3.19,19.13,8.5,25.5,12.75,12.75,46.76,20.19,182.78,25.5,180.65,8.5,235.91,22.32,266.73,53.13,18.07,17,26.57,44.63,26.57,75.45,0,32.94-6.38,62.7-30.82,87.14-31.88,30.82-94.58,55.26-259.29,55.26-122.21,0-240.16-19.13-308.17-47.82v-85.01c64.82,30.82,202.97,56.32,308.17,56.32,116.89,0,161.53-8.5,178.53-26.57,8.5-8.5,10.63-18.07,10.63-28.69,0-11.69-3.19-21.25-9.56-28.69-12.75-12.75-37.19-19.13-190.22-26.57-171.09-7.44-229.54-22.32-260.35-53.13-17-17-25.5-41.44-25.5-73.32,0-30.82,7.44-60.57,31.88-85.01"/>
  </g>
  <polygon class="cls-1" points="2101.73 249.31 1867.94 616.99 1633.09 249.31 1502.39 249.31 1502.39 678.63 1602.28 678.63 1602.28 367.27 1797.81 678.63 1932.77 678.63 2128.3 368.33 2129.36 678.63 2229.25 678.63 2229.25 249.31 2101.73 249.31"/>
  <path class="cls-1" d="M2695.77,249.31l300.74,428.26h-115.83l-65.89-96.7h-377.25l-65.89,96.7h-111.58l300.74-428.26h134.96ZM2490.67,503.29h269.92l-134.96-196.59-134.96,196.59Z"/>
</svg>