<?xml version="1.0" encoding="UTF-8"?>
<svg id="Layer_1" data-name="Layer 1" xmlns="http://www.w3.org/2000/svg" xmlns:xlink="http://www.w3.org/1999/xlink" viewBox="0 0 2662.02 2246.08">
  <defs>
    <style>
      .cls-1 {
        fill: none;
      }

      .cls-2 {
        fill: #020109;
        fill-rule: evenodd;
      }

      .cls-3 {
        clip-path: url(#clippath);
      }
    </style>
    <clipPath id="clippath">
      <rect class="cls-1" x="256.23" y="48.26" width="2149.55" height="2149.55"/>
    </clipPath>
  </defs>
  <g class="cls-3">
    <path class="cls-2" d="M295.28,243.88c-39.05,76.64-39.05,176.96-39.05,377.6v1003.13c0,200.65,0,300.97,39.05,377.61,34.35,67.41,89.15,122.22,156.57,156.56,76.64,39.05,176.96,39.05,377.6,39.05h1003.13c200.65,0,300.97,0,377.61-39.05,67.41-34.34,122.22-89.15,156.56-156.56,39.05-76.64,39.05-176.96,39.05-377.61v-1003.13c0-200.64,0-300.97-39.05-377.6-34.34-67.41-89.15-122.22-156.56-156.57-76.64-39.05-176.96-39.05-377.61-39.05h-705.77v670.2c26.3-39.8,57.72-72.04,94.29-96.7,57.51-40.13,125.73-60.19,204.64-60.19,120.38,0,214,37.45,280.88,112.35,66.87,73.56,100.31,187.25,100.31,341.06v573.79h-224.7v-513.6c0-80.25-9.36-141.78-28.09-184.58-18.72-44.14-44.8-74.9-78.24-92.29-32.1-17.39-69.55-26.08-112.35-26.08-76.24-1.34-135.09,23.41-176.55,74.23-40.12,50.82-60.19,123.72-60.19,218.68v523.63h-224.7V48.26h-72.65c-200.64,0-300.97,0-377.6,39.05-67.41,34.35-122.22,89.15-156.57,156.57ZM893.93,1767.91h917.14v161.22h-917.14v-161.22Z"/>
  </g>
</svg>